<?xml version="1.0" encoding="utf-8"?>
<!-- Generator: Adobe Illustrator 26.2.1, SVG Export Plug-In . SVG Version: 6.00 Build 0)  -->
<svg version="1.1" id="Layer_1" xmlns="http://www.w3.org/2000/svg" xmlns:xlink="http://www.w3.org/1999/xlink" x="0px" y="0px"
	 viewBox="0 0 512 512" style="enable-background:new 0 0 512 512;" xml:space="preserve">
<style type="text/css">
	.st0{fill:#FFFFFF;stroke:#00549F;stroke-width:12;stroke-linecap:round;stroke-linejoin:round;stroke-miterlimit:10;}
	.st1{display:none;}
	.st2{display:inline;fill:#00549F;}
	.st3{fill:none;stroke:#00549F;stroke-width:12;stroke-linecap:round;stroke-linejoin:round;stroke-miterlimit:10;}
</style>
<image style="display:none;overflow:visible;" width="600" height="620" xlink:href="F1973D6D.jpg"  transform="matrix(1 0 0 1 -44.1282 -54.4872)">
</image>
<path class="st0" d="M446,496H66c-27.6,0-50-22.4-50-50V66c0-27.6,22.4-50,50-50h380c27.6,0,50,22.4,50,50v380
	C496,473.6,473.6,496,446,496z"/>
<g class="st1">
	<path class="st2" d="M432.6,159h-6.5v-18.6c0-2.2-1.3-4.2-3.3-5.2c-53-24.9-113.6-25.3-166.8-1.1c-53.2-24.2-113.9-23.8-166.8,1.1
		c-2,0.9-3.3,3-3.3,5.2V159h-6.5c-9.9,0-17.9,8-17.9,17.9v200.9c0,9.9,8,17.9,17.9,17.9h353.2c9.9,0,17.9-8,17.9-17.9V176.9
		C450.5,167.1,442.5,159,432.6,159z M261.7,243.9C261.7,243.9,261.7,243.9,261.7,243.9V144c48.8-21.9,104.2-21.9,153,0v20.7
		c0,0,0,0,0,0s0,0,0,0v186.1c-24.5-10.2-50.5-15.4-76.5-15.4c-26,0-52,5.1-76.5,15.4V243.9z M225.2,134.9c8.5,2.4,16.9,5.5,25.1,9.2
		v89.2l-9.4-6.3c-1.9-1.3-4.4-1.3-6.3,0l-9.4,6.3V134.9z M97.3,164.8C97.3,164.8,97.3,164.7,97.3,164.8
		C97.3,164.7,97.3,164.7,97.3,164.8V144c37-16.5,77.7-20.6,116.5-12v25c-20.4-4.2-41.2-5.2-61.9-2.9c-3.1,0.3-5.4,3.2-5,6.3
		c0.3,3.1,3.2,5.4,6.3,5c20.3-2.3,40.7-1.2,60.6,3.2v37.1c-12.1-2.5-24.5-3.9-36.8-4.1c-3.2-0.1-5.7,2.5-5.8,5.6
		c0,3.2,2.5,5.7,5.6,5.8c12.4,0.2,24.9,1.6,37,4.3v12.7c-33-6.8-67.3-5.1-99.5,5.1c-3,0.9-4.7,4.1-3.7,7.2c0.8,2.4,3,4,5.4,4
		c0.6,0,1.1-0.1,1.7-0.3c31.1-9.8,64.3-11.2,96.1-4.3v2.2c0,2.1,1.2,4,3,5c1.9,1,4.1,0.9,5.9-0.3l15.1-10.1l12.6,8.4v103.9
		c-24.5-10.2-50.5-15.4-76.5-15.4s-52,5.1-76.5,15.4L97.3,164.8L97.3,164.8z M232,384.3H79.4c-3.6,0-6.5-2.9-6.5-6.5V176.9
		c0-3.6,2.9-6.5,6.5-6.5h6.5v189.2v6.1c0,3.2,2.6,5.7,5.7,5.7H232V384.3z M105.1,360c44.2-17.5,93.1-17.5,137.3,0H105.1z
		 M268.6,384.3h-25.1v-12.9h25.1V384.3z M406.9,360H269.5C313.8,342.5,362.6,342.5,406.9,360z M439.1,377.9c0,3.6-2.9,6.5-6.5,6.5
		H280v-12.9h140.4c3.2,0,5.7-2.6,5.7-5.7v-6.1V170.4h6.5c3.6,0,6.5,2.9,6.5,6.5V377.9z"/>
	<path class="st2" d="M297.5,303.4c-6.3,1.3-12.6,3-18.8,4.9c-3,0.9-4.7,4.1-3.7,7.2c0.8,2.4,3,4,5.4,4c0.6,0,1.1-0.1,1.7-0.3
		c5.8-1.8,11.8-3.4,17.7-4.6c3.1-0.6,5.1-3.7,4.4-6.8C303.6,304.7,300.5,302.7,297.5,303.4z"/>
	<path class="st2" d="M396.1,319.5c2.4,0,4.7-1.6,5.4-4c0.9-3-0.7-6.2-3.7-7.2c-24.4-7.7-49.7-10.5-75.2-8.5c-3.1,0.2-5.5,3-5.2,6.1
		s3,5.5,6.1,5.2c24-1.9,47.9,0.8,70.9,8C394.9,319.4,395.5,319.5,396.1,319.5z"/>
	<path class="st2" d="M280.4,295c0.6,0,1.1-0.1,1.7-0.3c36.7-11.5,75.6-11.5,112.3,0c3,0.9,6.2-0.7,7.2-3.7c0.9-3-0.7-6.2-3.7-7.2
		c-39-12.2-80.2-12.2-119.1,0c-3,0.9-4.7,4.1-3.7,7.2C275.7,293.5,277.9,295,280.4,295z"/>
	<path class="st2" d="M280.4,270.7c0.6,0,1.1-0.1,1.7-0.3c21.1-6.6,42.9-9.4,65-8.4c3.2,0.1,5.8-2.3,6-5.4c0.1-3.1-2.3-5.8-5.4-6
		c-23.4-1.1-46.6,1.9-69,8.9c-3,0.9-4.7,4.1-3.7,7.2C275.7,269.2,277.9,270.7,280.4,270.7z"/>
	<path class="st2" d="M397.8,259.6c-8.2-2.6-16.6-4.6-25.1-6.1c-3.1-0.5-6.1,1.5-6.6,4.6c-0.5,3.1,1.5,6.1,4.6,6.6
		c8,1.4,15.9,3.3,23.6,5.8c0.6,0.2,1.1,0.3,1.7,0.3c2.4,0,4.7-1.6,5.4-4C402.4,263.7,400.8,260.5,397.8,259.6z"/>
	<path class="st2" d="M280.4,246.3c0.6,0,1.1-0.1,1.7-0.3c36.7-11.5,75.6-11.5,112.3,0c3,0.9,6.2-0.7,7.2-3.7c0.9-3-0.7-6.2-3.7-7.2
		c-39-12.2-80.2-12.2-119.1,0c-3,0.9-4.7,4.1-3.7,7.2C275.7,244.7,277.9,246.3,280.4,246.3z"/>
	<path class="st2" d="M316.3,202.9c-12.7,1.4-25.4,4.1-37.6,7.9c-3,0.9-4.7,4.1-3.7,7.2c0.8,2.4,3,4,5.4,4c0.6,0,1.1-0.1,1.7-0.3
		c11.5-3.6,23.5-6.1,35.5-7.5c3.1-0.3,5.4-3.2,5-6.3C322.2,204.8,319.4,202.5,316.3,202.9z"/>
	<path class="st2" d="M341.2,213.1c18.1,0.3,36,3.2,53.2,8.6c0.6,0.2,1.1,0.3,1.7,0.3c2.4,0,4.7-1.6,5.4-4c0.9-3-0.7-6.2-3.7-7.2
		c-18.3-5.7-37.3-8.8-56.4-9.1c-3.1-0.1-5.7,2.5-5.8,5.6C335.5,210.5,338,213,341.2,213.1z"/>
	<path class="st2" d="M358.9,189.9c3.1,0.4,6-1.9,6.3-5c0.3-3.1-1.9-6-5-6.3c-27.6-3.1-55-0.4-81.5,7.9c-3,0.9-4.7,4.1-3.7,7.2
		c0.8,2.4,3,4,5.4,4c0.6,0,1.1-0.1,1.7-0.3C307,189.6,332.9,187,358.9,189.9z"/>
	<path class="st2" d="M397.8,186.5c-4.1-1.3-8.3-2.5-12.5-3.5c-3.1-0.7-6.2,1.1-6.9,4.2c-0.7,3.1,1.1,6.2,4.2,6.9
		c4,1,7.9,2.1,11.8,3.3c0.6,0.2,1.1,0.3,1.7,0.3c2.4,0,4.7-1.6,5.4-4C402.4,190.7,400.8,187.5,397.8,186.5z"/>
	<path class="st2" d="M280.4,173.2c0.6,0,1.1-0.1,1.7-0.3c3.9-1.2,7.9-2.3,11.8-3.3c3.1-0.7,4.9-3.8,4.2-6.9
		c-0.7-3.1-3.8-4.9-6.9-4.2c-4.2,1-8.4,2.2-12.5,3.5c-3,0.9-4.7,4.1-3.7,7.2C275.7,171.7,277.9,173.2,280.4,173.2z"/>
	<path class="st2" d="M317.5,165.5c26-2.9,51.9-0.4,76.8,7.5c0.6,0.2,1.1,0.3,1.7,0.3c2.4,0,4.7-1.6,5.4-4c0.9-3-0.7-6.2-3.7-7.2
		c-26.5-8.3-53.9-11-81.5-7.9c-3.1,0.3-5.4,3.2-5,6.3C311.6,163.6,314.4,165.9,317.5,165.5z"/>
	<path class="st2" d="M133,303.4c-6.3,1.3-12.6,3-18.8,4.9c-3,0.9-4.7,4.1-3.7,7.2c0.8,2.4,3,4,5.4,4c0.6,0,1.1-0.1,1.7-0.3
		c5.8-1.8,11.8-3.4,17.7-4.6c3.1-0.6,5.1-3.7,4.4-6.8C139.2,304.7,136.1,302.7,133,303.4z"/>
	<path class="st2" d="M231.6,319.5c2.4,0,4.7-1.6,5.4-4c0.9-3-0.7-6.2-3.7-7.2c-24.4-7.7-49.7-10.5-75.2-8.5c-3.1,0.2-5.5,3-5.2,6.1
		s3,5.5,6.1,5.2c24-1.9,47.9,0.8,70.9,8C230.5,319.4,231.1,319.5,231.6,319.5z"/>
	<path class="st2" d="M115.9,295c0.6,0,1.1-0.1,1.7-0.3c36.7-11.5,75.6-11.5,112.3,0c3,0.9,6.2-0.7,7.2-3.7c0.9-3-0.7-6.2-3.7-7.2
		c-39-12.2-80.2-12.2-119.1,0c-3,0.9-4.7,4.1-3.7,7.2C111.3,293.5,113.5,295,115.9,295z"/>
	<path class="st2" d="M115.9,270.7c0.6,0,1.1-0.1,1.7-0.3c21.1-6.6,42.9-9.4,65-8.4c3.2,0.1,5.8-2.3,6-5.4c0.1-3.1-2.3-5.8-5.4-6
		c-23.4-1.1-46.6,1.9-69,8.9c-3,0.9-4.7,4.1-3.7,7.2C111.3,269.2,113.5,270.7,115.9,270.7z"/>
	<path class="st2" d="M206.3,264.7c8,1.4,15.9,3.3,23.6,5.8c0.6,0.2,1.1,0.3,1.7,0.3c2.4,0,4.7-1.6,5.4-4c0.9-3-0.7-6.2-3.7-7.2
		c-8.2-2.6-16.6-4.6-25.1-6.1c-3.1-0.5-6.1,1.5-6.6,4.6C201.1,261.2,203.2,264.2,206.3,264.7z"/>
	<path class="st2" d="M151.9,202.9c-12.7,1.4-25.4,4.1-37.6,7.9c-3,0.9-4.7,4.1-3.7,7.2c0.8,2.4,3,4,5.4,4c0.6,0,1.1-0.1,1.7-0.3
		c11.5-3.6,23.5-6.1,35.5-7.5c3.1-0.3,5.4-3.2,5-6.3C157.8,204.8,155,202.5,151.9,202.9z"/>
	<path class="st2" d="M110.5,193.7c0.8,2.4,3,4,5.4,4c0.6,0,1.1-0.1,1.7-0.3c25-7.8,50.8-10.4,76.8-7.5c3.1,0.4,6-1.9,6.3-5
		c0.3-3.1-1.9-6-5-6.3c-27.6-3.1-55-0.4-81.5,7.9C111.2,187.5,109.6,190.7,110.5,193.7z"/>
	<path class="st2" d="M115.9,173.2c0.6,0,1.1-0.1,1.7-0.3c3.9-1.2,7.9-2.3,11.8-3.3c3.1-0.7,4.9-3.8,4.2-6.9
		c-0.7-3.1-3.8-4.9-6.9-4.2c-4.2,1-8.4,2.2-12.5,3.5c-3,0.9-4.7,4.1-3.7,7.2C111.3,171.7,113.5,173.2,115.9,173.2z"/>
</g>
<g>
	<polyline class="st3" points="331.7,89.4 392.3,150 331.7,210.6 	"/>
	<path class="st3" d="M119.7,240.9v-30.3c0-33.5,27.1-60.6,60.6-60.6h212"/>
	<polyline class="st3" points="180.3,422.6 119.7,362 180.3,301.4 	"/>
	<path class="st3" d="M392.3,271.1v30.3c0,33.5-27.1,60.6-60.6,60.6h-212"/>
</g>
</svg>
